<mxfile host="Electron" modified="2023-06-22T06:30:42.893Z" agent="Mozilla/5.0 (Windows NT 10.0; Win64; x64) AppleWebKit/537.36 (KHTML, like Gecko) draw.io/21.2.8 Chrome/112.0.5615.165 Electron/24.2.0 Safari/537.36" etag="UgRAWl4n9bRkPtMrxC2B" version="21.2.8" type="device">
  <diagram name="Seite-1" id="uaBNd2mP8x6advWxLbJ2">
    <mxGraphModel dx="780" dy="504" grid="1" gridSize="10" guides="1" tooltips="1" connect="1" arrows="1" fold="1" page="1" pageScale="1" pageWidth="827" pageHeight="1169" math="0" shadow="0">
      <root>
        <mxCell id="0" />
        <mxCell id="1" parent="0" />
        <mxCell id="VCHA-d8Y1YRG-k7Ma3FH-7" style="edgeStyle=orthogonalEdgeStyle;shape=link;rounded=0;orthogonalLoop=1;jettySize=auto;html=1;" parent="1" source="VCHA-d8Y1YRG-k7Ma3FH-1" edge="1">
          <mxGeometry relative="1" as="geometry">
            <mxPoint x="360" y="240" as="targetPoint" />
          </mxGeometry>
        </mxCell>
        <mxCell id="VCHA-d8Y1YRG-k7Ma3FH-1" value="Drone Dock 1" style="rounded=0;whiteSpace=wrap;html=1;" parent="1" vertex="1">
          <mxGeometry x="210" y="140" width="120" height="60" as="geometry" />
        </mxCell>
        <mxCell id="VCHA-d8Y1YRG-k7Ma3FH-9" style="edgeStyle=orthogonalEdgeStyle;shape=link;rounded=0;orthogonalLoop=1;jettySize=auto;html=1;" parent="1" source="VCHA-d8Y1YRG-k7Ma3FH-2" edge="1">
          <mxGeometry relative="1" as="geometry">
            <mxPoint x="360" y="240" as="targetPoint" />
          </mxGeometry>
        </mxCell>
        <mxCell id="VCHA-d8Y1YRG-k7Ma3FH-2" value="Drone Dock 2" style="rounded=0;whiteSpace=wrap;html=1;" parent="1" vertex="1">
          <mxGeometry x="210" y="280" width="120" height="60" as="geometry" />
        </mxCell>
        <mxCell id="VCHA-d8Y1YRG-k7Ma3FH-8" style="edgeStyle=orthogonalEdgeStyle;shape=link;rounded=0;orthogonalLoop=1;jettySize=auto;html=1;" parent="1" source="VCHA-d8Y1YRG-k7Ma3FH-3" edge="1">
          <mxGeometry relative="1" as="geometry">
            <mxPoint x="360" y="240" as="targetPoint" />
          </mxGeometry>
        </mxCell>
        <mxCell id="VCHA-d8Y1YRG-k7Ma3FH-3" value="Main Dock" style="whiteSpace=wrap;html=1;" parent="1" vertex="1">
          <mxGeometry x="160" y="210" width="170" height="60" as="geometry" />
        </mxCell>
        <mxCell id="VCHA-d8Y1YRG-k7Ma3FH-13" style="edgeStyle=orthogonalEdgeStyle;shape=link;rounded=0;orthogonalLoop=1;jettySize=auto;html=1;exitX=0;exitY=0.5;exitDx=0;exitDy=0;" parent="1" source="VCHA-d8Y1YRG-k7Ma3FH-10" edge="1">
          <mxGeometry relative="1" as="geometry">
            <mxPoint x="360" y="240" as="targetPoint" />
          </mxGeometry>
        </mxCell>
        <mxCell id="VCHA-d8Y1YRG-k7Ma3FH-21" style="edgeStyle=orthogonalEdgeStyle;shape=link;rounded=0;orthogonalLoop=1;jettySize=auto;html=1;exitX=1;exitY=0.5;exitDx=0;exitDy=0;entryX=0;entryY=0.5;entryDx=0;entryDy=0;" parent="1" source="VCHA-d8Y1YRG-k7Ma3FH-10" target="VCHA-d8Y1YRG-k7Ma3FH-20" edge="1">
          <mxGeometry relative="1" as="geometry" />
        </mxCell>
        <mxCell id="VCHA-d8Y1YRG-k7Ma3FH-10" value="Generator" style="rounded=0;whiteSpace=wrap;html=1;" parent="1" vertex="1">
          <mxGeometry x="380" y="210" width="120" height="60" as="geometry" />
        </mxCell>
        <mxCell id="vpmb4AeYzWGgMA8_WV8I-2" style="edgeStyle=orthogonalEdgeStyle;shape=link;rounded=0;orthogonalLoop=1;jettySize=auto;html=1;entryX=0.5;entryY=0;entryDx=0;entryDy=0;" parent="1" source="VCHA-d8Y1YRG-k7Ma3FH-11" target="VCHA-d8Y1YRG-k7Ma3FH-10" edge="1">
          <mxGeometry relative="1" as="geometry" />
        </mxCell>
        <mxCell id="VCHA-d8Y1YRG-k7Ma3FH-11" value="Storage Room" style="rounded=0;whiteSpace=wrap;html=1;" parent="1" vertex="1">
          <mxGeometry x="410" y="130" width="60" height="60" as="geometry" />
        </mxCell>
        <mxCell id="VCHA-d8Y1YRG-k7Ma3FH-17" style="edgeStyle=orthogonalEdgeStyle;shape=link;rounded=0;orthogonalLoop=1;jettySize=auto;html=1;exitX=1;exitY=0.5;exitDx=0;exitDy=0;entryX=0;entryY=0.5;entryDx=0;entryDy=0;" parent="1" source="VCHA-d8Y1YRG-k7Ma3FH-14" target="VCHA-d8Y1YRG-k7Ma3FH-16" edge="1">
          <mxGeometry relative="1" as="geometry" />
        </mxCell>
        <mxCell id="VCHA-d8Y1YRG-k7Ma3FH-26" style="edgeStyle=orthogonalEdgeStyle;shape=link;rounded=0;orthogonalLoop=1;jettySize=auto;html=1;exitX=0.5;exitY=0;exitDx=0;exitDy=0;entryX=0.375;entryY=1.017;entryDx=0;entryDy=0;entryPerimeter=0;" parent="1" source="VCHA-d8Y1YRG-k7Ma3FH-14" target="VCHA-d8Y1YRG-k7Ma3FH-20" edge="1">
          <mxGeometry relative="1" as="geometry" />
        </mxCell>
        <mxCell id="VCHA-d8Y1YRG-k7Ma3FH-14" value="Living Quarters" style="rounded=0;whiteSpace=wrap;html=1;" parent="1" vertex="1">
          <mxGeometry x="520" y="300" width="90" height="30" as="geometry" />
        </mxCell>
        <mxCell id="VCHA-d8Y1YRG-k7Ma3FH-16" value="Locker Room" style="rounded=0;whiteSpace=wrap;html=1;" parent="1" vertex="1">
          <mxGeometry x="660" y="300" width="50" height="30" as="geometry" />
        </mxCell>
        <mxCell id="VCHA-d8Y1YRG-k7Ma3FH-20" value="Dinning Room" style="rounded=0;whiteSpace=wrap;html=1;" parent="1" vertex="1">
          <mxGeometry x="520" y="210" width="120" height="60" as="geometry" />
        </mxCell>
        <mxCell id="VCHA-d8Y1YRG-k7Ma3FH-25" style="edgeStyle=orthogonalEdgeStyle;shape=link;rounded=0;orthogonalLoop=1;jettySize=auto;html=1;exitX=0.5;exitY=1;exitDx=0;exitDy=0;entryX=0.875;entryY=-0.033;entryDx=0;entryDy=0;entryPerimeter=0;" parent="1" source="VCHA-d8Y1YRG-k7Ma3FH-23" target="VCHA-d8Y1YRG-k7Ma3FH-20" edge="1">
          <mxGeometry relative="1" as="geometry" />
        </mxCell>
        <mxCell id="VCHA-d8Y1YRG-k7Ma3FH-23" value="Kitchen" style="rounded=0;whiteSpace=wrap;html=1;" parent="1" vertex="1">
          <mxGeometry x="600" y="130" width="50" height="60" as="geometry" />
        </mxCell>
        <mxCell id="VCHA-d8Y1YRG-k7Ma3FH-31" style="edgeStyle=orthogonalEdgeStyle;shape=link;rounded=0;orthogonalLoop=1;jettySize=auto;html=1;exitX=1;exitY=0.5;exitDx=0;exitDy=0;entryX=0;entryY=0.5;entryDx=0;entryDy=0;entryPerimeter=0;" parent="1" source="VCHA-d8Y1YRG-k7Ma3FH-27" target="VCHA-d8Y1YRG-k7Ma3FH-29" edge="1">
          <mxGeometry relative="1" as="geometry" />
        </mxCell>
        <mxCell id="VCHA-d8Y1YRG-k7Ma3FH-27" value="Conference Room" style="rounded=1;whiteSpace=wrap;html=1;" parent="1" vertex="1">
          <mxGeometry x="650" y="220" width="70" height="40" as="geometry" />
        </mxCell>
        <mxCell id="VCHA-d8Y1YRG-k7Ma3FH-29" value="Main Bridge" style="shape=or;whiteSpace=wrap;html=1;" parent="1" vertex="1">
          <mxGeometry x="730" y="200" width="60" height="80" as="geometry" />
        </mxCell>
        <mxCell id="VCHA-d8Y1YRG-k7Ma3FH-32" style="edgeStyle=orthogonalEdgeStyle;shape=link;rounded=0;orthogonalLoop=1;jettySize=auto;html=1;" parent="1" source="VCHA-d8Y1YRG-k7Ma3FH-33" edge="1">
          <mxGeometry relative="1" as="geometry">
            <mxPoint x="370" y="650" as="targetPoint" />
          </mxGeometry>
        </mxCell>
        <mxCell id="VCHA-d8Y1YRG-k7Ma3FH-33" value="Drone Dock 1" style="rounded=0;whiteSpace=wrap;html=1;" parent="1" vertex="1">
          <mxGeometry x="220" y="550" width="120" height="60" as="geometry" />
        </mxCell>
        <mxCell id="VCHA-d8Y1YRG-k7Ma3FH-34" style="edgeStyle=orthogonalEdgeStyle;shape=link;rounded=0;orthogonalLoop=1;jettySize=auto;html=1;" parent="1" source="VCHA-d8Y1YRG-k7Ma3FH-35" edge="1">
          <mxGeometry relative="1" as="geometry">
            <mxPoint x="370" y="650" as="targetPoint" />
          </mxGeometry>
        </mxCell>
        <mxCell id="VCHA-d8Y1YRG-k7Ma3FH-35" value="Drone Dock 2" style="rounded=0;whiteSpace=wrap;html=1;" parent="1" vertex="1">
          <mxGeometry x="220" y="690" width="120" height="60" as="geometry" />
        </mxCell>
        <mxCell id="VCHA-d8Y1YRG-k7Ma3FH-36" style="edgeStyle=orthogonalEdgeStyle;shape=link;rounded=0;orthogonalLoop=1;jettySize=auto;html=1;" parent="1" source="VCHA-d8Y1YRG-k7Ma3FH-37" edge="1">
          <mxGeometry relative="1" as="geometry">
            <mxPoint x="370" y="650" as="targetPoint" />
          </mxGeometry>
        </mxCell>
        <mxCell id="VCHA-d8Y1YRG-k7Ma3FH-37" value="Main Dock" style="whiteSpace=wrap;html=1;" parent="1" vertex="1">
          <mxGeometry x="170" y="620" width="170" height="60" as="geometry" />
        </mxCell>
        <mxCell id="VCHA-d8Y1YRG-k7Ma3FH-38" style="edgeStyle=orthogonalEdgeStyle;shape=link;rounded=0;orthogonalLoop=1;jettySize=auto;html=1;exitX=0;exitY=0.5;exitDx=0;exitDy=0;" parent="1" source="VCHA-d8Y1YRG-k7Ma3FH-40" edge="1">
          <mxGeometry relative="1" as="geometry">
            <mxPoint x="370" y="650" as="targetPoint" />
          </mxGeometry>
        </mxCell>
        <mxCell id="VCHA-d8Y1YRG-k7Ma3FH-39" style="edgeStyle=orthogonalEdgeStyle;shape=link;rounded=0;orthogonalLoop=1;jettySize=auto;html=1;exitX=1;exitY=0.5;exitDx=0;exitDy=0;entryX=0;entryY=0.5;entryDx=0;entryDy=0;" parent="1" source="VCHA-d8Y1YRG-k7Ma3FH-40" target="VCHA-d8Y1YRG-k7Ma3FH-48" edge="1">
          <mxGeometry relative="1" as="geometry" />
        </mxCell>
        <mxCell id="VCHA-d8Y1YRG-k7Ma3FH-40" value="Generator" style="rounded=0;whiteSpace=wrap;html=1;" parent="1" vertex="1">
          <mxGeometry x="390" y="620" width="120" height="60" as="geometry" />
        </mxCell>
        <mxCell id="vpmb4AeYzWGgMA8_WV8I-3" style="edgeStyle=orthogonalEdgeStyle;shape=link;rounded=0;orthogonalLoop=1;jettySize=auto;html=1;entryX=0.5;entryY=0;entryDx=0;entryDy=0;" parent="1" source="VCHA-d8Y1YRG-k7Ma3FH-42" target="VCHA-d8Y1YRG-k7Ma3FH-40" edge="1">
          <mxGeometry relative="1" as="geometry" />
        </mxCell>
        <mxCell id="VCHA-d8Y1YRG-k7Ma3FH-42" value="Storage Room" style="rounded=0;whiteSpace=wrap;html=1;" parent="1" vertex="1">
          <mxGeometry x="420" y="540" width="60" height="60" as="geometry" />
        </mxCell>
        <mxCell id="VCHA-d8Y1YRG-k7Ma3FH-43" style="edgeStyle=orthogonalEdgeStyle;shape=link;rounded=0;orthogonalLoop=1;jettySize=auto;html=1;exitX=1;exitY=0.5;exitDx=0;exitDy=0;entryX=0;entryY=0.5;entryDx=0;entryDy=0;" parent="1" source="VCHA-d8Y1YRG-k7Ma3FH-45" target="VCHA-d8Y1YRG-k7Ma3FH-46" edge="1">
          <mxGeometry relative="1" as="geometry" />
        </mxCell>
        <mxCell id="VCHA-d8Y1YRG-k7Ma3FH-44" style="edgeStyle=orthogonalEdgeStyle;shape=link;rounded=0;orthogonalLoop=1;jettySize=auto;html=1;exitX=0.5;exitY=0;exitDx=0;exitDy=0;entryX=0.375;entryY=1.017;entryDx=0;entryDy=0;entryPerimeter=0;" parent="1" source="VCHA-d8Y1YRG-k7Ma3FH-45" target="VCHA-d8Y1YRG-k7Ma3FH-48" edge="1">
          <mxGeometry relative="1" as="geometry" />
        </mxCell>
        <mxCell id="VCHA-d8Y1YRG-k7Ma3FH-45" value="Living Quarters" style="rounded=0;whiteSpace=wrap;html=1;" parent="1" vertex="1">
          <mxGeometry x="530" y="710" width="90" height="30" as="geometry" />
        </mxCell>
        <mxCell id="3xR7r1bOYpOyFnKNwJTe-4" style="edgeStyle=orthogonalEdgeStyle;rounded=0;orthogonalLoop=1;jettySize=auto;html=1;exitX=0.5;exitY=0;exitDx=0;exitDy=0;entryX=0.5;entryY=1;entryDx=0;entryDy=0;shape=link;" parent="1" source="VCHA-d8Y1YRG-k7Ma3FH-46" target="VCHA-d8Y1YRG-k7Ma3FH-52" edge="1">
          <mxGeometry relative="1" as="geometry" />
        </mxCell>
        <mxCell id="VCHA-d8Y1YRG-k7Ma3FH-46" value="Locker Room" style="rounded=0;whiteSpace=wrap;html=1;" parent="1" vertex="1">
          <mxGeometry x="670" y="710" width="50" height="30" as="geometry" />
        </mxCell>
        <mxCell id="VCHA-d8Y1YRG-k7Ma3FH-48" value="Dinning Room" style="rounded=0;whiteSpace=wrap;html=1;" parent="1" vertex="1">
          <mxGeometry x="530" y="620" width="120" height="60" as="geometry" />
        </mxCell>
        <mxCell id="VCHA-d8Y1YRG-k7Ma3FH-49" style="edgeStyle=orthogonalEdgeStyle;shape=link;rounded=0;orthogonalLoop=1;jettySize=auto;html=1;exitX=0.5;exitY=1;exitDx=0;exitDy=0;entryX=0.875;entryY=-0.033;entryDx=0;entryDy=0;entryPerimeter=0;" parent="1" source="VCHA-d8Y1YRG-k7Ma3FH-50" target="VCHA-d8Y1YRG-k7Ma3FH-48" edge="1">
          <mxGeometry relative="1" as="geometry" />
        </mxCell>
        <mxCell id="VCHA-d8Y1YRG-k7Ma3FH-50" value="Kitchen" style="rounded=0;whiteSpace=wrap;html=1;" parent="1" vertex="1">
          <mxGeometry x="610" y="530" width="50" height="60" as="geometry" />
        </mxCell>
        <mxCell id="VCHA-d8Y1YRG-k7Ma3FH-51" style="edgeStyle=orthogonalEdgeStyle;shape=link;rounded=0;orthogonalLoop=1;jettySize=auto;html=1;exitX=1;exitY=0.5;exitDx=0;exitDy=0;entryX=0;entryY=0.5;entryDx=0;entryDy=0;entryPerimeter=0;" parent="1" source="VCHA-d8Y1YRG-k7Ma3FH-52" target="VCHA-d8Y1YRG-k7Ma3FH-53" edge="1">
          <mxGeometry relative="1" as="geometry" />
        </mxCell>
        <mxCell id="VCHA-d8Y1YRG-k7Ma3FH-52" value="Conference Room" style="rounded=1;whiteSpace=wrap;html=1;" parent="1" vertex="1">
          <mxGeometry x="660" y="630" width="70" height="40" as="geometry" />
        </mxCell>
        <mxCell id="VCHA-d8Y1YRG-k7Ma3FH-53" value="Main Bridge" style="shape=or;whiteSpace=wrap;html=1;" parent="1" vertex="1">
          <mxGeometry x="740" y="610" width="60" height="80" as="geometry" />
        </mxCell>
        <mxCell id="VCHA-d8Y1YRG-k7Ma3FH-58" style="edgeStyle=none;rounded=0;orthogonalLoop=1;jettySize=auto;html=1;exitX=1;exitY=0.75;exitDx=0;exitDy=0;entryX=0.5;entryY=0.333;entryDx=0;entryDy=0;entryPerimeter=0;" parent="1" source="VCHA-d8Y1YRG-k7Ma3FH-54" target="VCHA-d8Y1YRG-k7Ma3FH-33" edge="1">
          <mxGeometry relative="1" as="geometry" />
        </mxCell>
        <mxCell id="VCHA-d8Y1YRG-k7Ma3FH-54" value="Starting Area" style="text;html=1;strokeColor=none;fillColor=none;align=center;verticalAlign=middle;whiteSpace=wrap;rounded=0;" parent="1" vertex="1">
          <mxGeometry x="160" y="470" width="80" height="30" as="geometry" />
        </mxCell>
        <mxCell id="VCHA-d8Y1YRG-k7Ma3FH-62" style="edgeStyle=none;rounded=0;orthogonalLoop=1;jettySize=auto;html=1;entryX=0;entryY=0.5;entryDx=0;entryDy=0;" parent="1" source="VCHA-d8Y1YRG-k7Ma3FH-61" target="VCHA-d8Y1YRG-k7Ma3FH-40" edge="1">
          <mxGeometry relative="1" as="geometry" />
        </mxCell>
        <mxCell id="VCHA-d8Y1YRG-k7Ma3FH-61" value="&lt;div&gt;locked Door&lt;/div&gt;&lt;div&gt;&lt;br&gt;&lt;/div&gt;&lt;div&gt;Fuse + Case needed to open Door&lt;br&gt;&lt;/div&gt;" style="text;html=1;strokeColor=none;fillColor=none;align=center;verticalAlign=middle;whiteSpace=wrap;rounded=0;" parent="1" vertex="1">
          <mxGeometry x="370" y="770" width="160" height="60" as="geometry" />
        </mxCell>
        <mxCell id="VCHA-d8Y1YRG-k7Ma3FH-65" style="edgeStyle=none;rounded=0;orthogonalLoop=1;jettySize=auto;html=1;" parent="1" source="VCHA-d8Y1YRG-k7Ma3FH-64" target="VCHA-d8Y1YRG-k7Ma3FH-35" edge="1">
          <mxGeometry relative="1" as="geometry" />
        </mxCell>
        <mxCell id="VCHA-d8Y1YRG-k7Ma3FH-64" value="Fuse" style="text;html=1;strokeColor=none;fillColor=none;align=center;verticalAlign=middle;whiteSpace=wrap;rounded=0;" parent="1" vertex="1">
          <mxGeometry x="160" y="770" width="60" height="30" as="geometry" />
        </mxCell>
        <mxCell id="VCHA-d8Y1YRG-k7Ma3FH-67" style="edgeStyle=none;rounded=0;orthogonalLoop=1;jettySize=auto;html=1;" parent="1" source="VCHA-d8Y1YRG-k7Ma3FH-66" edge="1">
          <mxGeometry relative="1" as="geometry">
            <mxPoint x="370" y="580" as="targetPoint" />
          </mxGeometry>
        </mxCell>
        <mxCell id="VCHA-d8Y1YRG-k7Ma3FH-66" value="Fuse Case" style="text;html=1;align=center;verticalAlign=middle;resizable=0;points=[];autosize=1;strokeColor=none;fillColor=none;" parent="1" vertex="1">
          <mxGeometry x="380" y="448" width="80" height="30" as="geometry" />
        </mxCell>
        <mxCell id="VCHA-d8Y1YRG-k7Ma3FH-69" style="edgeStyle=none;rounded=0;orthogonalLoop=1;jettySize=auto;html=1;entryX=0.392;entryY=1.067;entryDx=0;entryDy=0;entryPerimeter=0;" parent="1" source="VCHA-d8Y1YRG-k7Ma3FH-68" target="VCHA-d8Y1YRG-k7Ma3FH-48" edge="1">
          <mxGeometry relative="1" as="geometry" />
        </mxCell>
        <mxCell id="VCHA-d8Y1YRG-k7Ma3FH-68" value="Fire" style="text;html=1;align=center;verticalAlign=middle;resizable=0;points=[];autosize=1;strokeColor=none;fillColor=none;" parent="1" vertex="1">
          <mxGeometry x="650" y="788" width="40" height="30" as="geometry" />
        </mxCell>
        <mxCell id="VCHA-d8Y1YRG-k7Ma3FH-71" style="edgeStyle=none;rounded=0;orthogonalLoop=1;jettySize=auto;html=1;" parent="1" source="VCHA-d8Y1YRG-k7Ma3FH-70" target="VCHA-d8Y1YRG-k7Ma3FH-42" edge="1">
          <mxGeometry relative="1" as="geometry" />
        </mxCell>
        <mxCell id="VCHA-d8Y1YRG-k7Ma3FH-70" value="Fire Extinguisher" style="text;html=1;align=center;verticalAlign=middle;resizable=0;points=[];autosize=1;strokeColor=none;fillColor=none;" parent="1" vertex="1">
          <mxGeometry x="500" y="448" width="110" height="30" as="geometry" />
        </mxCell>
        <mxCell id="VCHA-d8Y1YRG-k7Ma3FH-73" style="edgeStyle=none;rounded=0;orthogonalLoop=1;jettySize=auto;html=1;" parent="1" source="VCHA-d8Y1YRG-k7Ma3FH-72" target="VCHA-d8Y1YRG-k7Ma3FH-53" edge="1">
          <mxGeometry relative="1" as="geometry" />
        </mxCell>
        <mxCell id="VCHA-d8Y1YRG-k7Ma3FH-72" value="End" style="text;html=1;strokeColor=none;fillColor=none;align=center;verticalAlign=middle;whiteSpace=wrap;rounded=0;" parent="1" vertex="1">
          <mxGeometry x="730" y="478" width="60" height="30" as="geometry" />
        </mxCell>
        <mxCell id="3xR7r1bOYpOyFnKNwJTe-2" value="" style="endArrow=none;html=1;rounded=0;exitX=0.5;exitY=0;exitDx=0;exitDy=0;entryX=0.5;entryY=1;entryDx=0;entryDy=0;shape=link;" parent="1" source="VCHA-d8Y1YRG-k7Ma3FH-16" target="VCHA-d8Y1YRG-k7Ma3FH-27" edge="1">
          <mxGeometry width="50" height="50" relative="1" as="geometry">
            <mxPoint x="600" y="300" as="sourcePoint" />
            <mxPoint x="650" y="250" as="targetPoint" />
          </mxGeometry>
        </mxCell>
      </root>
    </mxGraphModel>
  </diagram>
</mxfile>
